<svg xmlns="http://www.w3.org/2000/svg" width="64" height="64" viewBox="0 0 64 64" fill="none"><g opacity="0.8"><rect width="64" height="64" rx="32" fill="#C2EFD1"></rect><path d="M48.875 33.2589H15.125C14.9758 33.2589 14.8327 33.1996 14.7273 33.0941C14.6218 32.9887 14.5625 32.8456 14.5625 32.6964C14.5625 32.5472 14.6218 32.4041 14.7273 32.2987C14.8327 32.1932 14.9758 32.1339 15.125 32.1339H48.875C49.0242 32.1339 49.1673 32.1932 49.2727 32.2987C49.3782 32.4041 49.4375 32.5472 49.4375 32.6964C49.4375 32.8456 49.3782 32.9887 49.2727 33.0941C49.1673 33.1996 49.0242 33.2589 48.875 33.2589ZM44.6562 38.2753C44.166 38.2638 43.6846 38.1414 43.2484 37.9174C42.8121 37.6933 42.4323 37.3734 42.1374 36.9815C41.6407 36.4573 41.2486 36.0427 40.4352 36.0427C39.6219 36.0427 39.2309 36.4573 38.7348 36.9815C38.4476 37.3811 38.0695 37.7065 37.6316 37.931C37.1938 38.1555 36.7088 38.2726 36.2168 38.2726C35.7247 38.2726 35.2398 38.1555 34.8019 37.931C34.3641 37.7065 33.9859 37.3811 33.6987 36.9815C33.2026 36.4573 32.8106 36.0427 31.9972 36.0427C31.1838 36.0427 30.7929 36.4573 30.2968 36.9815C30.002 37.3732 29.6223 37.6931 29.1863 37.9172C28.7502 38.1412 28.2691 38.2637 27.779 38.2753C27.289 38.2637 26.8079 38.1413 26.3719 37.9173C25.936 37.6932 25.5564 37.3733 25.2618 36.9815C24.7657 36.4573 24.3742 36.0427 23.5619 36.0427C22.7497 36.0427 22.3582 36.4573 21.8621 36.9815C21.5674 37.3733 21.1879 37.6932 20.7519 37.9172C20.316 38.1413 19.8349 38.2637 19.3449 38.2753C18.8548 38.2637 18.3736 38.1414 17.9376 37.9173C17.5015 37.6932 17.1219 37.3733 16.8271 36.9815C16.3288 36.4601 15.9367 36.0455 15.125 36.0455C14.9758 36.0455 14.8327 35.9863 14.7273 35.8808C14.6218 35.7753 14.5625 35.6322 14.5625 35.483C14.5625 35.3338 14.6218 35.1908 14.7273 35.0853C14.8327 34.9798 14.9758 34.9205 15.125 34.9205C15.615 34.9322 16.096 35.0547 16.532 35.2787C16.9679 35.5028 17.3475 35.8226 17.6422 36.2143C18.1377 36.7391 18.5298 37.1531 19.3421 37.1531C20.1543 37.1531 20.5458 36.7391 21.0419 36.2143C21.3366 35.8225 21.7161 35.5026 22.1521 35.2786C22.588 35.0545 23.0691 34.9321 23.5591 34.9205C24.0491 34.9322 24.5301 35.0547 24.9661 35.2787C25.402 35.5028 25.7816 35.8226 26.0763 36.2143C26.5724 36.7391 26.9639 37.1531 27.7762 37.1531C28.5884 37.1531 28.9805 36.7391 29.4766 36.2143C29.7639 35.8147 30.1421 35.4893 30.58 35.2648C31.0178 35.0403 31.5029 34.9232 31.9949 34.9232C32.487 34.9232 32.972 35.0403 33.4099 35.2648C33.8478 35.4893 34.226 35.8147 34.5132 36.2143C35.0094 36.7391 35.4014 37.1531 36.2143 37.1531C37.0271 37.1531 37.4186 36.7391 37.9147 36.2143C38.202 35.8147 38.5802 35.4893 39.0182 35.2648C39.4561 35.0403 39.9412 34.9232 40.4333 34.9232C40.9254 34.9232 41.4105 35.0403 41.8484 35.2648C42.2863 35.4893 42.6646 35.8147 42.9519 36.2143C43.4486 36.7391 43.8406 37.1531 44.6534 37.1531C45.4662 37.1531 45.8594 36.7391 46.3556 36.2137C46.6509 35.8222 47.0309 35.5025 47.4672 35.2786C47.9035 35.0546 48.3847 34.9322 48.875 34.9205C49.0242 34.9205 49.1673 34.9798 49.2727 35.0853C49.3782 35.1908 49.4375 35.3338 49.4375 35.483C49.4375 35.6322 49.3782 35.7753 49.2727 35.8808C49.1673 35.9863 49.0242 36.0455 48.875 36.0455C48.0622 36.0455 47.6696 36.4601 47.1734 36.9843C46.8782 37.3752 46.4985 37.6944 46.0626 37.9179C45.6267 38.1415 45.146 38.2636 44.6562 38.2753ZM48.875 41.6188H47.75C47.6008 41.6188 47.4577 41.5595 47.3523 41.454C47.2468 41.3485 47.1875 41.2055 47.1875 41.0563C47.1875 40.9071 47.2468 40.764 47.3523 40.6585C47.4577 40.553 47.6008 40.4938 47.75 40.4938H48.875C49.0242 40.4938 49.1673 40.553 49.2727 40.6585C49.3782 40.764 49.4375 40.9071 49.4375 41.0563C49.4375 41.2055 49.3782 41.3485 49.2727 41.454C49.1673 41.5595 49.0242 41.6188 48.875 41.6188ZM43.8125 41.6188H42.6875C42.5383 41.6188 42.3952 41.5595 42.2898 41.454C42.1843 41.3485 42.125 41.2055 42.125 41.0563C42.125 40.9071 42.1843 40.764 42.2898 40.6585C42.3952 40.553 42.5383 40.4938 42.6875 40.4938H43.8125C43.9617 40.4938 44.1048 40.553 44.2102 40.6585C44.3157 40.764 44.375 40.9071 44.375 41.0563C44.375 41.2055 44.3157 41.3485 44.2102 41.454C44.1048 41.5595 43.9617 41.6188 43.8125 41.6188ZM38.1875 41.6188H37.0625C36.9133 41.6188 36.7702 41.5595 36.6648 41.454C36.5593 41.3485 36.5 41.2055 36.5 41.0563C36.5 40.9071 36.5593 40.764 36.6648 40.6585C36.7702 40.553 36.9133 40.4938 37.0625 40.4938H38.1875C38.3367 40.4938 38.4798 40.553 38.5852 40.6585C38.6907 40.764 38.75 40.9071 38.75 41.0563C38.75 41.2055 38.6907 41.3485 38.5852 41.454C38.4798 41.5595 38.3367 41.6188 38.1875 41.6188ZM32.5625 41.6188H31.4375C31.2883 41.6188 31.1452 41.5595 31.0398 41.454C30.9343 41.3485 30.875 41.2055 30.875 41.0563C30.875 40.9071 30.9343 40.764 31.0398 40.6585C31.1452 40.553 31.2883 40.4938 31.4375 40.4938H32.5625C32.7117 40.4938 32.8548 40.553 32.9602 40.6585C33.0657 40.764 33.125 40.9071 33.125 41.0563C33.125 41.2055 33.0657 41.3485 32.9602 41.454C32.8548 41.5595 32.7117 41.6188 32.5625 41.6188ZM26.9375 41.6188H25.8125C25.6633 41.6188 25.5202 41.5595 25.4148 41.454C25.3093 41.3485 25.25 41.2055 25.25 41.0563C25.25 40.9071 25.3093 40.764 25.4148 40.6585C25.5202 40.553 25.6633 40.4938 25.8125 40.4938H26.9375C27.0867 40.4938 27.2298 40.553 27.3352 40.6585C27.4407 40.764 27.5 40.9071 27.5 41.0563C27.5 41.2055 27.4407 41.3485 27.3352 41.454C27.2298 41.5595 27.0867 41.6188 26.9375 41.6188ZM21.3125 41.6188H20.1875C20.0383 41.6188 19.8952 41.5595 19.7898 41.454C19.6843 41.3485 19.625 41.2055 19.625 41.0563C19.625 40.9071 19.6843 40.764 19.7898 40.6585C19.8952 40.553 20.0383 40.4938 20.1875 40.4938H21.3125C21.4617 40.4938 21.6048 40.553 21.7102 40.6585C21.8157 40.764 21.875 40.9071 21.875 41.0563C21.875 41.2055 21.8157 41.3485 21.7102 41.454C21.6048 41.5595 21.4617 41.6188 21.3125 41.6188ZM16.25 41.6188H15.125C14.9758 41.6188 14.8327 41.5595 14.7273 41.454C14.6218 41.3485 14.5625 41.2055 14.5625 41.0563C14.5625 40.9071 14.6218 40.764 14.7273 40.6585C14.8327 40.553 14.9758 40.4938 15.125 40.4938H16.25C16.3992 40.4938 16.5423 40.553 16.6477 40.6585C16.7532 40.764 16.8125 40.9071 16.8125 41.0563C16.8125 41.2055 16.7532 41.3485 16.6477 41.454C16.5423 41.5595 16.3992 41.6188 16.25 41.6188ZM18.5 44.9634H17.375C17.2258 44.9634 17.0827 44.9041 16.9773 44.7986C16.8718 44.6932 16.8125 44.5501 16.8125 44.4009C16.8125 44.2517 16.8718 44.1086 16.9773 44.0032C17.0827 43.8977 17.2258 43.8384 17.375 43.8384H18.5C18.6492 43.8384 18.7923 43.8977 18.8977 44.0032C19.0032 44.1086 19.0625 44.2517 19.0625 44.4009C19.0625 44.5501 19.0032 44.6932 18.8977 44.7986C18.7923 44.9041 18.6492 44.9634 18.5 44.9634ZM24.125 44.9634H23C22.8508 44.9634 22.7077 44.9041 22.6023 44.7986C22.4968 44.6932 22.4375 44.5501 22.4375 44.4009C22.4375 44.2517 22.4968 44.1086 22.6023 44.0032C22.7077 43.8977 22.8508 43.8384 23 43.8384H24.125C24.2742 43.8384 24.4173 43.8977 24.5227 44.0032C24.6282 44.1086 24.6875 44.2517 24.6875 44.4009C24.6875 44.5501 24.6282 44.6932 24.5227 44.7986C24.4173 44.9041 24.2742 44.9634 24.125 44.9634ZM29.75 44.9634H28.625C28.4758 44.9634 28.3327 44.9041 28.2273 44.7986C28.1218 44.6932 28.0625 44.5501 28.0625 44.4009C28.0625 44.2517 28.1218 44.1086 28.2273 44.0032C28.3327 43.8977 28.4758 43.8384 28.625 43.8384H29.75C29.8992 43.8384 30.0423 43.8977 30.1477 44.0032C30.2532 44.1086 30.3125 44.2517 30.3125 44.4009C30.3125 44.5501 30.2532 44.6932 30.1477 44.7986C30.0423 44.9041 29.8992 44.9634 29.75 44.9634ZM35.375 44.9634H34.25C34.1008 44.9634 33.9577 44.9041 33.8523 44.7986C33.7468 44.6932 33.6875 44.5501 33.6875 44.4009C33.6875 44.2517 33.7468 44.1086 33.8523 44.0032C33.9577 43.8977 34.1008 43.8384 34.25 43.8384H35.375C35.5242 43.8384 35.6673 43.8977 35.7727 44.0032C35.8782 44.1086 35.9375 44.2517 35.9375 44.4009C35.9375 44.5501 35.8782 44.6932 35.7727 44.7986C35.6673 44.9041 35.5242 44.9634 35.375 44.9634ZM41 44.9634H39.875C39.7258 44.9634 39.5827 44.9041 39.4773 44.7986C39.3718 44.6932 39.3125 44.5501 39.3125 44.4009C39.3125 44.2517 39.3718 44.1086 39.4773 44.0032C39.5827 43.8977 39.7258 43.8384 39.875 43.8384H41C41.1492 43.8384 41.2923 43.8977 41.3977 44.0032C41.5032 44.1086 41.5625 44.2517 41.5625 44.4009C41.5625 44.5501 41.5032 44.6932 41.3977 44.7986C41.2923 44.9041 41.1492 44.9634 41 44.9634ZM46.625 44.9634H45.5C45.3508 44.9634 45.2077 44.9041 45.1023 44.7986C44.9968 44.6932 44.9375 44.5501 44.9375 44.4009C44.9375 44.2517 44.9968 44.1086 45.1023 44.0032C45.2077 43.8977 45.3508 43.8384 45.5 43.8384H46.625C46.7742 43.8384 46.9173 43.8977 47.0227 44.0032C47.1282 44.1086 47.1875 44.2517 47.1875 44.4009C47.1875 44.5501 47.1282 44.6932 47.0227 44.7986C46.9173 44.9041 46.7742 44.9634 46.625 44.9634ZM43.8125 47.75H42.6875C42.5383 47.75 42.3952 47.6908 42.2898 47.5853C42.1843 47.4798 42.125 47.3367 42.125 47.1875C42.125 47.0383 42.1843 46.8953 42.2898 46.7898C42.3952 46.6843 42.5383 46.625 42.6875 46.625H43.8125C43.9617 46.625 44.1048 46.6843 44.2102 46.7898C44.3157 46.8953 44.375 47.0383 44.375 47.1875C44.375 47.3367 44.3157 47.4798 44.2102 47.5853C44.1048 47.6908 43.9617 47.75 43.8125 47.75ZM38.1875 47.75H37.0625C36.9133 47.75 36.7702 47.6908 36.6648 47.5853C36.5593 47.4798 36.5 47.3367 36.5 47.1875C36.5 47.0383 36.5593 46.8953 36.6648 46.7898C36.7702 46.6843 36.9133 46.625 37.0625 46.625H38.1875C38.3367 46.625 38.4798 46.6843 38.5852 46.7898C38.6907 46.8953 38.75 47.0383 38.75 47.1875C38.75 47.3367 38.6907 47.4798 38.5852 47.5853C38.4798 47.6908 38.3367 47.75 38.1875 47.75ZM32.5625 47.75H31.4375C31.2883 47.75 31.1452 47.6908 31.0398 47.5853C30.9343 47.4798 30.875 47.3367 30.875 47.1875C30.875 47.0383 30.9343 46.8953 31.0398 46.7898C31.1452 46.6843 31.2883 46.625 31.4375 46.625H32.5625C32.7117 46.625 32.8548 46.6843 32.9602 46.7898C33.0657 46.8953 33.125 47.0383 33.125 47.1875C33.125 47.3367 33.0657 47.4798 32.9602 47.5853C32.8548 47.6908 32.7117 47.75 32.5625 47.75ZM26.9375 47.75H25.8125C25.6633 47.75 25.5202 47.6908 25.4148 47.5853C25.3093 47.4798 25.25 47.3367 25.25 47.1875C25.25 47.0383 25.3093 46.8953 25.4148 46.7898C25.5202 46.6843 25.6633 46.625 25.8125 46.625H26.9375C27.0867 46.625 27.2298 46.6843 27.3352 46.7898C27.4407 46.8953 27.5 47.0383 27.5 47.1875C27.5 47.3367 27.4407 47.4798 27.3352 47.5853C27.2298 47.6908 27.0867 47.75 26.9375 47.75ZM21.3125 47.75H20.1875C20.0383 47.75 19.8952 47.6908 19.7898 47.5853C19.6843 47.4798 19.625 47.3367 19.625 47.1875C19.625 47.0383 19.6843 46.8953 19.7898 46.7898C19.8952 46.6843 20.0383 46.625 20.1875 46.625H21.3125C21.4617 46.625 21.6048 46.6843 21.7102 46.7898C21.8157 46.8953 21.875 47.0383 21.875 47.1875C21.875 47.3367 21.8157 47.4798 21.7102 47.5853C21.6048 47.6908 21.4617 47.75 21.3125 47.75ZM32 30.3125C31.9376 30.3124 31.8756 30.3019 31.8166 30.2816C25.8806 28.2341 25.8125 19.1396 25.8125 18.7531C25.8125 18.604 25.8718 18.4609 25.9773 18.3554C26.0827 18.2499 26.2258 18.1906 26.375 18.1906C28.9732 18.1906 31.6541 16.3676 31.6811 16.3496C31.7749 16.285 31.8861 16.2504 32 16.2504C32.1139 16.2504 32.2251 16.285 32.3189 16.3496C32.3459 16.3676 35.0268 18.1906 37.625 18.1906C37.7742 18.1906 37.9173 18.2499 38.0227 18.3554C38.1282 18.4609 38.1875 18.604 38.1875 18.7531C38.1875 19.1396 38.1194 28.2341 32.1834 30.2844C32.1242 30.3038 32.0623 30.3133 32 30.3125ZM26.9577 19.2909C27.0663 21.1854 27.7452 27.513 32 29.1515C36.2609 27.5113 36.9359 21.1848 37.0428 19.2915C35.2493 19.0662 33.5275 18.4483 32 17.4819C30.4727 18.4482 28.751 19.0659 26.9577 19.2909Z" fill="#007F48"></path></g></svg>