<svg xmlns="http://www.w3.org/2000/svg" width="64" height="64" viewBox="0 0 64 64" fill="none"><g opacity="0.8"><rect width="64" height="64" rx="32" fill="#C2EFD1"></rect><g clip-path="url(#clip0_582_37086)"><path d="M49.5781 34.7159H14.4219C14.31 34.7159 14.2027 34.6714 14.1236 34.5923C14.0444 34.5132 14 34.4059 14 34.294C14 34.1821 14.0444 34.0748 14.1236 33.9957C14.2027 33.9166 14.31 33.8721 14.4219 33.8721H49.5781C49.69 33.8721 49.7973 33.9166 49.8764 33.9957C49.9556 34.0748 50 34.1821 50 34.294C50 34.4059 49.9556 34.5132 49.8764 34.5923C49.7973 34.6714 49.69 34.7159 49.5781 34.7159ZM49.5781 39.2159H14.4219C14.31 39.2159 14.2027 39.1714 14.1236 39.0923C14.0444 39.0132 14 38.9059 14 38.794C14 38.6821 14.0444 38.5748 14.1236 38.4957C14.2027 38.4166 14.31 38.3721 14.4219 38.3721H49.5781C49.69 38.3721 49.7973 38.4166 49.8764 38.4957C49.9556 38.5748 50 38.6821 50 38.794C50 38.9059 49.9556 39.0132 49.8764 39.0923C49.7973 39.1714 49.69 39.2159 49.5781 39.2159ZM18.4932 45.2023C18.1595 45.2023 17.8332 45.1033 17.5557 44.9179C17.2782 44.7325 17.0619 44.4689 16.9342 44.1606C16.8065 43.8522 16.7731 43.5129 16.8382 43.1856C16.9033 42.8582 17.064 42.5575 17.3 42.3215C17.536 42.0855 17.8367 41.9248 18.164 41.8597C18.4914 41.7946 18.8307 41.828 19.139 41.9557C19.4474 42.0835 19.7109 42.2997 19.8964 42.5773C20.0818 42.8548 20.1807 43.181 20.1807 43.5148C20.1803 43.9622 20.0024 44.3912 19.686 44.7076C19.3697 45.0239 18.9407 45.2019 18.4932 45.2023ZM18.4932 42.6719C18.3264 42.6719 18.1632 42.7214 18.0245 42.8141C17.8857 42.9068 17.7776 43.0386 17.7137 43.1927C17.6499 43.3469 17.6332 43.5166 17.6657 43.6802C17.6983 43.8439 17.7786 43.9942 17.8966 44.1122C18.0146 44.2302 18.165 44.3106 18.3286 44.3432C18.4923 44.3757 18.662 44.359 18.8161 44.2951C18.9703 44.2313 19.1021 44.1231 19.1948 43.9844C19.2875 43.8456 19.337 43.6825 19.337 43.5156C19.337 43.2918 19.2481 43.0772 19.0899 42.919C18.9316 42.7608 18.717 42.6719 18.4932 42.6719ZM23 49.4811C22.6662 49.4811 22.34 49.3821 22.0625 49.1967C21.785 49.0113 21.5687 48.7477 21.441 48.4394C21.3132 48.131 21.2798 47.7917 21.3449 47.4644C21.41 47.137 21.5708 46.8363 21.8068 46.6003C22.0428 46.3643 22.3434 46.2036 22.6708 46.1385C22.9981 46.0734 23.3374 46.1068 23.6458 46.2345C23.9541 46.3622 24.2177 46.5785 24.4031 46.856C24.5885 47.1336 24.6875 47.4598 24.6875 47.7936C24.6871 48.241 24.5092 48.67 24.1928 48.9864C23.8764 49.3027 23.4474 49.4807 23 49.4811ZM23 46.9498C22.8331 46.9498 22.67 46.9993 22.5312 47.092C22.3925 47.1847 22.2843 47.3165 22.2205 47.4707C22.1566 47.6249 22.1399 47.7945 22.1725 47.9582C22.205 48.1219 22.2854 48.2722 22.4034 48.3902C22.5214 48.5082 22.6717 48.5886 22.8354 48.6211C22.9991 48.6537 23.1687 48.637 23.3229 48.5731C23.4771 48.5092 23.6088 48.4011 23.7016 48.2623C23.7943 48.1236 23.8438 47.9604 23.8438 47.7936C23.8436 47.5699 23.7546 47.3555 23.5964 47.1974C23.4382 47.0393 23.2237 46.9505 23 46.9505V46.9498ZM32 49.4811C31.6662 49.4811 31.34 49.3821 31.0625 49.1967C30.785 49.0113 30.5687 48.7477 30.441 48.4394C30.3132 48.131 30.2798 47.7917 30.3449 47.4644C30.41 47.137 30.5708 46.8363 30.8068 46.6003C31.0428 46.3643 31.3434 46.2036 31.6708 46.1385C31.9981 46.0734 32.3374 46.1068 32.6458 46.2345C32.9541 46.3622 33.2177 46.5785 33.4031 46.856C33.5885 47.1336 33.6875 47.4598 33.6875 47.7936C33.6871 48.241 33.5092 48.67 33.1928 48.9864C32.8764 49.3027 32.4474 49.4807 32 49.4811ZM32 46.9498C31.8331 46.9498 31.67 46.9993 31.5312 47.092C31.3925 47.1847 31.2843 47.3165 31.2205 47.4707C31.1566 47.6249 31.1399 47.7945 31.1725 47.9582C31.205 48.1219 31.2854 48.2722 31.4034 48.3902C31.5214 48.5082 31.6717 48.5886 31.8354 48.6211C31.9991 48.6537 32.1687 48.637 32.3229 48.5731C32.4771 48.5092 32.6088 48.4011 32.7016 48.2623C32.7943 48.1236 32.8438 47.9604 32.8438 47.7936C32.8436 47.5699 32.7546 47.3555 32.5964 47.1974C32.4382 47.0393 32.2237 46.9505 32 46.9505V46.9498ZM41 49.4811C40.6662 49.4811 40.34 49.3821 40.0625 49.1967C39.785 49.0113 39.5687 48.7477 39.441 48.4394C39.3132 48.131 39.2798 47.7917 39.3449 47.4644C39.41 47.137 39.5708 46.8363 39.8068 46.6003C40.0428 46.3643 40.3434 46.2036 40.6708 46.1385C40.9981 46.0734 41.3374 46.1068 41.6458 46.2345C41.9541 46.3622 42.2177 46.5785 42.4031 46.856C42.5885 47.1336 42.6875 47.4598 42.6875 47.7936C42.6871 48.241 42.5092 48.67 42.1928 48.9864C41.8764 49.3027 41.4474 49.4807 41 49.4811ZM41 46.9498C40.8331 46.9498 40.67 46.9993 40.5312 47.092C40.3925 47.1847 40.2843 47.3165 40.2205 47.4707C40.1566 47.6249 40.1399 47.7945 40.1725 47.9582C40.205 48.1219 40.2854 48.2722 40.4034 48.3902C40.5214 48.5082 40.6717 48.5886 40.8354 48.6211C40.9991 48.6537 41.1687 48.637 41.3229 48.5731C41.4771 48.5092 41.6088 48.4011 41.7016 48.2623C41.7943 48.1236 41.8438 47.9604 41.8438 47.7936C41.8436 47.5699 41.7546 47.3555 41.5964 47.1974C41.4382 47.0393 41.2237 46.9505 41 46.9505V46.9498ZM27.5 45.2023C27.1662 45.2023 26.84 45.1033 26.5625 44.9179C26.285 44.7325 26.0687 44.4689 25.941 44.1606C25.8132 43.8522 25.7798 43.5129 25.8449 43.1856C25.91 42.8582 26.0708 42.5575 26.3068 42.3215C26.5428 42.0855 26.8434 41.9248 27.1708 41.8597C27.4981 41.7946 27.8374 41.828 28.1458 41.9557C28.4541 42.0835 28.7177 42.2997 28.9031 42.5773C29.0885 42.8548 29.1875 43.181 29.1875 43.5148C29.1871 43.9622 29.0092 44.3912 28.6928 44.7076C28.3764 45.0239 27.9474 45.2019 27.5 45.2023ZM27.5 42.6719C27.3331 42.6719 27.17 42.7214 27.0312 42.8141C26.8925 42.9068 26.7843 43.0386 26.7205 43.1927C26.6566 43.3469 26.6399 43.5166 26.6725 43.6802C26.705 43.8439 26.7854 43.9942 26.9034 44.1122C27.0214 44.2302 27.1717 44.3106 27.3354 44.3432C27.4991 44.3757 27.6687 44.359 27.8229 44.2951C27.9771 44.2313 28.1088 44.1231 28.2016 43.9844C28.2943 43.8456 28.3438 43.6825 28.3438 43.5156C28.3438 43.2918 28.2549 43.0772 28.0966 42.919C27.9384 42.7608 27.7238 42.6719 27.5 42.6719ZM36.5068 45.2023C36.173 45.2023 35.8467 45.1033 35.5692 44.9179C35.2917 44.7325 35.0754 44.4689 34.9477 44.1606C34.82 43.8522 34.7866 43.5129 34.8517 43.1856C34.9168 42.8582 35.0775 42.5575 35.3135 42.3215C35.5495 42.0855 35.8502 41.9248 36.1775 41.8597C36.5049 41.7946 36.8442 41.828 37.1525 41.9557C37.4609 42.0835 37.7244 42.2997 37.9099 42.5773C38.0953 42.8548 38.1943 43.181 38.1943 43.5148C38.1938 43.9622 38.0159 44.3912 37.6995 44.7076C37.3832 45.0239 36.9542 45.2019 36.5068 45.2023ZM36.5068 42.6719C36.3399 42.6719 36.1767 42.7214 36.038 42.8141C35.8992 42.9068 35.7911 43.0386 35.7272 43.1927C35.6634 43.3469 35.6467 43.5166 35.6792 43.6802C35.7118 43.8439 35.7921 43.9942 35.9101 44.1122C36.0281 44.2302 36.1785 44.3106 36.3421 44.3432C36.5058 44.3757 36.6755 44.359 36.8296 44.2951C36.9838 44.2313 37.1156 44.1231 37.2083 43.9844C37.301 43.8456 37.3505 43.6825 37.3505 43.5156C37.3505 43.2918 37.2616 43.0772 37.1034 42.919C36.9451 42.7608 36.7305 42.6719 36.5068 42.6719ZM45.5141 45.2023C45.1803 45.2023 44.854 45.1033 44.5765 44.9179C44.299 44.7325 44.0827 44.4689 43.955 44.1606C43.8273 43.8522 43.7939 43.5129 43.859 43.1856C43.9241 42.8582 44.0848 42.5575 44.3208 42.3215C44.5568 42.0855 44.8575 41.9248 45.1848 41.8597C45.5122 41.7946 45.8515 41.828 46.1598 41.9557C46.4682 42.0835 46.7317 42.2997 46.9172 42.5773C47.1026 42.8548 47.2016 43.181 47.2016 43.5148C47.2012 43.9622 47.0232 44.3912 46.7069 44.7076C46.3905 45.0239 45.9615 45.2019 45.5141 45.2023ZM45.5141 42.6719C45.3472 42.6719 45.1841 42.7214 45.0453 42.8141C44.9065 42.9068 44.7984 43.0386 44.7345 43.1927C44.6707 43.3469 44.654 43.5166 44.6865 43.6802C44.7191 43.8439 44.7994 43.9942 44.9174 44.1122C45.0354 44.2302 45.1858 44.3106 45.3495 44.3432C45.5131 44.3757 45.6828 44.359 45.837 44.2951C45.9911 44.2313 46.1229 44.1231 46.2156 43.9844C46.3083 43.8456 46.3578 43.6825 46.3578 43.5156C46.3578 43.2918 46.2689 43.0772 46.1107 42.919C45.9524 42.7608 45.7378 42.6719 45.5141 42.6719ZM20.9342 31.5002C20.8419 31.5002 20.7521 31.47 20.6786 31.4141C20.6051 31.3582 20.552 31.2798 20.5274 31.1908L20.526 31.1858C20.5246 31.1818 20.5233 31.1772 20.5218 31.1717C20.4711 31.0104 20.0733 29.8384 19.0536 29.2828C18.401 28.9272 17.6079 28.8891 16.6963 29.1672C16.643 29.1847 16.5867 29.1914 16.5308 29.1869C16.4749 29.1824 16.4204 29.1668 16.3706 29.141C16.3207 29.1151 16.2766 29.0796 16.2406 29.0365C16.2047 28.9934 16.1777 28.9436 16.1613 28.8899C16.1449 28.8362 16.1393 28.7798 16.145 28.724C16.1506 28.6682 16.1673 28.614 16.1942 28.5647C16.221 28.5154 16.2574 28.472 16.3012 28.4369C16.345 28.4019 16.3954 28.3759 16.4494 28.3606C17.3609 28.0816 17.9963 27.6054 18.338 26.9454C18.9095 25.8417 18.4954 24.5516 18.4911 24.5387C18.4742 24.4855 18.468 24.4294 18.4729 24.3737C18.4779 24.3181 18.4938 24.2639 18.5198 24.2145C18.5458 24.165 18.5814 24.1212 18.6244 24.0856C18.6675 24.0501 18.7172 24.0234 18.7707 24.0071C18.8241 23.9909 18.8803 23.9855 18.9359 23.9911C18.9915 23.9968 19.0454 24.0134 19.0945 24.0401C19.1436 24.0668 19.1869 24.1029 19.2219 24.1465C19.2569 24.19 19.283 24.2401 19.2985 24.2937C19.3018 24.3058 19.6808 25.6066 20.7722 26.2013C21.4247 26.5565 22.2178 26.5951 23.1292 26.3166C23.1825 26.2993 23.2387 26.2927 23.2945 26.2973C23.3504 26.3019 23.4047 26.3176 23.4545 26.3434C23.5042 26.3693 23.5483 26.4047 23.5841 26.4478C23.62 26.4908 23.6469 26.5406 23.6633 26.5942C23.6797 26.6478 23.6853 26.7041 23.6797 26.7598C23.6741 26.8156 23.6575 26.8696 23.6307 26.9189C23.604 26.9681 23.5678 27.0116 23.5241 27.0467C23.4804 27.0818 23.4302 27.1078 23.3763 27.1232C22.4648 27.4024 21.8294 27.8785 21.4877 28.5386C20.9495 29.578 21.2855 30.7827 21.3301 30.9304L21.3318 30.936L21.3347 30.9453C21.3558 31.0087 21.3615 31.0762 21.3514 31.1423C21.3412 31.2083 21.3156 31.271 21.2765 31.3252C21.2373 31.3794 21.1859 31.4235 21.1264 31.4539C21.0669 31.4844 21.001 31.5002 20.9342 31.5002ZM18.447 28.1913C18.8038 28.2526 19.1479 28.3729 19.4653 28.5472C19.8097 28.7383 20.1199 28.9855 20.3832 29.2785C20.4374 28.8883 20.5562 28.5098 20.7348 28.1587C20.9002 27.8366 21.118 27.5442 21.3793 27.2935C21.0223 27.2322 20.678 27.1119 20.3605 26.9375C20.0159 26.7464 19.7055 26.4993 19.4422 26.2062C19.388 26.5965 19.2692 26.975 19.0906 27.3262C18.9254 27.6482 18.7079 27.9405 18.447 28.1913ZM39.5728 31.6069C39.5111 31.607 39.4502 31.5935 39.3943 31.5675C39.3385 31.5415 39.2889 31.5035 39.2493 31.4563C39.2097 31.4091 39.1809 31.3538 39.1649 31.2942C39.149 31.2347 39.1462 31.1724 39.157 31.1117C39.1581 31.1046 39.2976 30.2339 38.8288 29.5874C38.55 29.2035 38.0983 28.9625 37.4863 28.8711C37.3865 28.8562 37.2952 28.8059 37.2293 28.7294C37.1633 28.653 37.1269 28.5554 37.1268 28.4544C37.1268 28.4334 37.1283 28.4124 37.1314 28.3915C37.1396 28.3367 37.1585 28.2841 37.187 28.2366C37.2156 28.1891 37.2532 28.1477 37.2977 28.1147C37.3423 28.0817 37.3929 28.0579 37.4466 28.0445C37.5004 28.0311 37.5563 28.0284 37.6111 28.0366C38.2256 28.128 38.7297 28.0286 39.109 27.74C39.7401 27.2598 39.8623 26.39 39.8633 26.382C39.8715 26.3272 39.8904 26.2746 39.919 26.2271C39.9475 26.1796 39.9852 26.1382 40.0297 26.1052C40.0743 26.0723 40.1249 26.0484 40.1786 26.035C40.2324 26.0216 40.2883 26.0189 40.3431 26.0271C40.3979 26.0353 40.4505 26.0543 40.498 26.0828C40.5455 26.1113 40.5869 26.149 40.6199 26.1935C40.6528 26.2381 40.6767 26.2887 40.6901 26.3424C40.7035 26.3962 40.7061 26.4521 40.6979 26.5069C40.6967 26.5138 40.5573 27.3844 41.0262 28.0308C41.3047 28.4147 41.7564 28.6558 42.3684 28.7472C42.4683 28.7621 42.5596 28.8123 42.6256 28.8888C42.6916 28.9652 42.728 29.0628 42.7281 29.1639C42.7281 29.1849 42.7265 29.2059 42.7234 29.2267C42.7068 29.3374 42.647 29.4369 42.5571 29.5035C42.4672 29.5701 42.3545 29.5982 42.2438 29.5816C41.6292 29.4898 41.125 29.5897 40.7458 29.8782C40.1148 30.3585 39.9926 31.2282 39.9916 31.2362C39.9791 31.3385 39.9296 31.4327 39.8524 31.501C39.7753 31.5692 39.6758 31.6069 39.5728 31.6069ZM39.1461 28.6923C39.2852 28.8135 39.4097 28.9503 39.5173 29.1001C39.6342 29.2633 39.7309 29.4399 39.8054 29.6262C39.9312 29.4698 40.0754 29.3292 40.2349 29.2073C40.3813 29.0954 40.5404 29.001 40.7088 28.9261C40.5697 28.8049 40.4452 28.668 40.3377 28.5182C40.2207 28.3551 40.1239 28.1785 40.0494 27.9922C39.9237 28.1486 39.7795 28.2893 39.62 28.4111C39.4735 28.5229 39.3145 28.6173 39.1461 28.6923ZM31.7609 22.0413C31.702 22.0414 31.6437 22.0291 31.5898 22.0053C31.5359 21.9815 31.4876 21.9466 31.448 21.903C31.4084 21.8593 31.3784 21.8079 31.3599 21.7519C31.3414 21.696 31.3348 21.6368 31.3406 21.5781V21.5742C31.3406 21.5697 31.3406 21.5648 31.3417 21.5601C31.3521 21.398 31.4001 20.2181 30.6842 19.3742C30.226 18.8341 29.5336 18.5273 28.6261 18.4624C28.5198 18.4548 28.4202 18.4072 28.3476 18.3292C28.2749 18.2512 28.2344 18.1486 28.2343 18.042C28.2343 18.0318 28.2343 18.0217 28.2353 18.0114C28.239 17.9561 28.2536 17.902 28.2783 17.8524C28.303 17.8027 28.3374 17.7584 28.3793 17.7221C28.4212 17.6858 28.4699 17.6581 28.5226 17.6407C28.5753 17.6233 28.6309 17.6166 28.6862 17.6208C29.594 17.686 30.3229 17.4802 30.8535 17.0112C31.6882 16.2725 31.8044 15.0864 31.8158 14.937V14.9215C31.8239 14.8099 31.876 14.7061 31.9607 14.6329C32.0026 14.5967 32.0513 14.5691 32.1039 14.5516C32.1565 14.5342 32.212 14.5273 32.2673 14.5313C32.3225 14.5354 32.3764 14.5502 32.426 14.5751C32.4755 14.6 32.5196 14.6343 32.5558 14.6763C32.5921 14.7182 32.6197 14.7668 32.6371 14.8194C32.6546 14.872 32.6614 14.9275 32.6574 14.9828V14.9867C32.6574 14.9912 32.6574 14.9962 32.6563 15.0015C32.6459 15.1638 32.5979 16.3435 33.3139 17.1874C33.772 17.7275 34.4645 18.0344 35.3719 18.0993C35.4782 18.1069 35.5777 18.1545 35.6504 18.2325C35.7231 18.3105 35.7636 18.4131 35.7637 18.5197C35.7637 18.5298 35.7637 18.5399 35.7627 18.5502C35.7589 18.6055 35.7442 18.6595 35.7194 18.7091C35.6947 18.7587 35.6604 18.8029 35.6185 18.8392C35.5766 18.8755 35.5279 18.9032 35.4753 18.9206C35.4227 18.9381 35.3671 18.9449 35.3119 18.9408C34.404 18.8761 33.6751 19.0815 33.1445 19.5504C32.3098 20.2891 32.1936 21.4752 32.1823 21.6247V21.6401C32.1767 21.7482 32.1299 21.85 32.0515 21.9247C31.9731 21.9993 31.8692 22.041 31.7609 22.0413ZM30.5697 18.1778C30.8581 18.3543 31.1161 18.5761 31.3339 18.8348C31.5698 19.1171 31.7584 19.4358 31.8924 19.7785C32.0739 19.4584 32.306 19.1699 32.5798 18.924C32.8322 18.699 33.1192 18.5161 33.4297 18.3824C33.1414 18.2059 32.8833 17.9841 32.6656 17.7254C32.4296 17.4431 32.241 17.1244 32.107 16.7817C31.9255 17.1018 31.6934 17.3904 31.4196 17.6363C31.1673 17.8612 30.8804 18.044 30.57 18.1778H30.5697ZM21.1362 20.0595H20.283C20.1711 20.0595 20.0638 20.0151 19.9847 19.9359C19.9056 19.8568 19.8611 19.7495 19.8611 19.6376C19.8611 19.5257 19.9056 19.4184 19.9847 19.3393C20.0638 19.2602 20.1711 19.2158 20.283 19.2158H21.1362C21.248 19.2158 21.3554 19.2602 21.4345 19.3393C21.5136 19.4184 21.558 19.5257 21.558 19.6376C21.558 19.7495 21.5136 19.8568 21.4345 19.9359C21.3554 20.0151 21.248 20.0595 21.1362 20.0595ZM22.0016 21.7765C21.8897 21.7765 21.7824 21.7321 21.7033 21.653C21.6241 21.5739 21.5797 21.4666 21.5797 21.3547V20.5019C21.5797 20.39 21.6241 20.2827 21.7033 20.2036C21.7824 20.1245 21.8897 20.08 22.0016 20.08C22.1135 20.08 22.2208 20.1245 22.2999 20.2036C22.379 20.2827 22.4234 20.39 22.4234 20.5019V21.3547C22.4234 21.4666 22.379 21.5739 22.2999 21.653C22.2208 21.7321 22.1135 21.7765 22.0016 21.7765ZM23.7185 20.0591H22.8653C22.7534 20.0591 22.6461 20.0146 22.567 19.9355C22.4879 19.8564 22.4434 19.7491 22.4434 19.6372C22.4434 19.5253 22.4879 19.418 22.567 19.3389C22.6461 19.2598 22.7534 19.2153 22.8653 19.2153H23.7185C23.8303 19.2153 23.9376 19.2598 24.0168 19.3389C24.0959 19.418 24.1403 19.5253 24.1403 19.6372C24.1403 19.7491 24.0959 19.8564 24.0168 19.9355C23.9376 20.0146 23.8303 20.0591 23.7185 20.0591ZM22.0006 19.1947C21.8887 19.1947 21.7814 19.1502 21.7023 19.0711C21.6232 18.992 21.5787 18.8847 21.5787 18.7728V17.9198C21.5787 17.8079 21.6232 17.7006 21.7023 17.6214C21.7814 17.5423 21.8887 17.4979 22.0006 17.4979C22.1125 17.4979 22.2198 17.5423 22.2989 17.6214C22.378 17.7006 22.4225 17.8079 22.4225 17.9198V18.7728C22.4225 18.8847 22.378 18.992 22.2989 19.0711C22.2198 19.1502 22.1125 19.1947 22.0006 19.1947ZM44.2917 22.9526H43.4713C43.3595 22.9526 43.2521 22.9081 43.173 22.829C43.0939 22.7499 43.0495 22.6426 43.0495 22.5307C43.0495 22.4188 43.0939 22.3115 43.173 22.2324C43.2521 22.1533 43.3595 22.1088 43.4713 22.1088H44.2917C44.4036 22.1088 44.5109 22.1533 44.5901 22.2324C44.6692 22.3115 44.7136 22.4188 44.7136 22.5307C44.7136 22.6426 44.6692 22.7499 44.5901 22.829C44.5109 22.9081 44.4036 22.9526 44.2917 22.9526ZM45.1233 24.6042C45.0114 24.6042 44.9041 24.5598 44.825 24.4807C44.7458 24.4015 44.7014 24.2942 44.7014 24.1824V23.3618C44.7014 23.2499 44.7458 23.1426 44.825 23.0635C44.9041 22.9844 45.0114 22.9399 45.1233 22.9399C45.2352 22.9399 45.3425 22.9844 45.4216 23.0635C45.5007 23.1426 45.5451 23.2499 45.5451 23.3618V24.1824C45.5451 24.2942 45.5007 24.4015 45.4216 24.4807C45.3425 24.5598 45.2352 24.6042 45.1233 24.6042ZM46.7749 22.9522H45.9544C45.8425 22.9522 45.7352 22.9077 45.656 22.8286C45.5769 22.7495 45.5325 22.6422 45.5325 22.5303C45.5325 22.4184 45.5769 22.3111 45.656 22.232C45.7352 22.1529 45.8425 22.1084 45.9544 22.1084H46.7749C46.8868 22.1084 46.9941 22.1529 47.0732 22.232C47.1523 22.3111 47.1968 22.4184 47.1968 22.5303C47.1968 22.6422 47.1523 22.7495 47.0732 22.8286C46.9941 22.9077 46.8868 22.9522 46.7749 22.9522ZM45.1228 22.1211C45.011 22.1211 44.9037 22.0766 44.8245 21.9975C44.7454 21.9184 44.701 21.8111 44.701 21.6992V20.8788C44.701 20.7669 44.7454 20.6596 44.8245 20.5805C44.9037 20.5014 45.011 20.4569 45.1228 20.4569C45.2347 20.4569 45.342 20.5014 45.4212 20.5805C45.5003 20.6596 45.5447 20.7669 45.5447 20.8788V21.6992C45.5447 21.8111 45.5003 21.9184 45.4212 21.9975C45.342 22.0766 45.2347 22.1211 45.1228 22.1211Z" fill="#007F48"></path></g></g><defs><clipPath id="clip0_582_37086"><rect width="36" height="36" fill="white" transform="translate(14 14)"></rect></clipPath></defs></svg>