<svg xmlns="http://www.w3.org/2000/svg" width="64" height="64" viewBox="0 0 64 64" fill="none"><g opacity="0.8"><rect width="64" height="64" rx="32" fill="#C2EFD1"></rect><path d="M49.5781 31.8313H38.5585C38.4466 31.8313 38.3393 31.7868 38.2602 31.7077C38.181 31.6286 38.1366 31.5213 38.1366 31.4094C38.1366 31.2975 38.181 31.1902 38.2602 31.1111C38.3393 31.032 38.4466 30.9875 38.5585 30.9875H49.5781C49.69 30.9875 49.7973 31.032 49.8764 31.1111C49.9556 31.1902 50 31.2975 50 31.4094C50 31.5213 49.9556 31.6286 49.8764 31.7077C49.7973 31.7868 49.69 31.8313 49.5781 31.8313ZM25.4415 31.8313H14.4219C14.31 31.8313 14.2027 31.7868 14.1236 31.7077C14.0444 31.6286 14 31.5213 14 31.4094C14 31.2975 14.0444 31.1902 14.1236 31.1111C14.2027 31.032 14.31 30.9875 14.4219 30.9875H25.4415C25.5534 30.9875 25.6607 31.032 25.7398 31.1111C25.819 31.1902 25.8634 31.2975 25.8634 31.4094C25.8634 31.5213 25.819 31.6286 25.7398 31.7077C25.6607 31.7868 25.5534 31.8313 25.4415 31.8313ZM49.5781 36.3306H14.4219C14.31 36.3306 14.2027 36.2861 14.1236 36.207C14.0444 36.1279 14 36.0206 14 35.9087C14 35.7968 14.0444 35.6895 14.1236 35.6104C14.2027 35.5312 14.31 35.4868 14.4219 35.4868H49.5781C49.69 35.4868 49.7973 35.5312 49.8764 35.6104C49.9556 35.6895 50 35.7968 50 35.9087C50 36.0206 49.9556 36.1279 49.8764 36.207C49.7973 36.2861 49.69 36.3306 49.5781 36.3306ZM18.4932 42.317C18.1595 42.317 17.8332 42.218 17.5557 42.0326C17.2782 41.8471 17.0619 41.5836 16.9342 41.2752C16.8065 40.9669 16.7731 40.6276 16.8382 40.3002C16.9033 39.9729 17.064 39.6722 17.3 39.4362C17.536 39.2002 17.8367 39.0395 18.164 38.9744C18.4914 38.9093 18.8307 38.9427 19.139 39.0704C19.4474 39.1981 19.7109 39.4144 19.8964 39.6919C20.0818 39.9694 20.1807 40.2957 20.1807 40.6295C20.1803 41.0769 20.0024 41.5059 19.686 41.8222C19.3697 42.1386 18.9407 42.3165 18.4932 42.317ZM18.4932 39.7866C18.3264 39.7866 18.1632 39.836 18.0245 39.9287C17.8857 40.0215 17.7776 40.1532 17.7137 40.3074C17.6499 40.4616 17.6332 40.6312 17.6657 40.7949C17.6983 40.9586 17.7786 41.1089 17.8966 41.2269C18.0146 41.3449 18.165 41.4253 18.3286 41.4578C18.4923 41.4904 18.662 41.4737 18.8161 41.4098C18.9703 41.346 19.1021 41.2378 19.1948 41.0991C19.2875 40.9603 19.337 40.7972 19.337 40.6303C19.337 40.4065 19.2481 40.1919 19.0899 40.0337C18.9316 39.8754 18.717 39.7866 18.4932 39.7866ZM23 46.5958C22.6662 46.5958 22.34 46.4968 22.0625 46.3114C21.785 46.1259 21.5687 45.8624 21.441 45.554C21.3132 45.2457 21.2798 44.9064 21.3449 44.579C21.41 44.2517 21.5708 43.951 21.8068 43.715C22.0428 43.479 22.3434 43.3183 22.6708 43.2532C22.9981 43.1881 23.3374 43.2215 23.6458 43.3492C23.9541 43.4769 24.2177 43.6932 24.4031 43.9707C24.5885 44.2482 24.6875 44.5745 24.6875 44.9083C24.6871 45.3557 24.5092 45.7847 24.1928 46.101C23.8764 46.4174 23.4474 46.5953 23 46.5958ZM23 44.0645C22.8331 44.0645 22.67 44.114 22.5312 44.2067C22.3925 44.2994 22.2843 44.4312 22.2205 44.5854C22.1566 44.7395 22.1399 44.9092 22.1725 45.0729C22.205 45.2365 22.2854 45.3869 22.4034 45.5049C22.5214 45.6229 22.6717 45.7032 22.8354 45.7358C22.9991 45.7683 23.1687 45.7516 23.3229 45.6878C23.4771 45.6239 23.6088 45.5158 23.7016 45.377C23.7943 45.2383 23.8438 45.0751 23.8438 44.9083C23.8435 44.6847 23.7544 44.4704 23.5962 44.3124C23.438 44.1544 23.2236 44.0656 23 44.0656V44.0645ZM32 46.5958C31.6662 46.5958 31.34 46.4968 31.0625 46.3114C30.785 46.1259 30.5687 45.8624 30.441 45.554C30.3132 45.2457 30.2798 44.9064 30.3449 44.579C30.41 44.2517 30.5708 43.951 30.8068 43.715C31.0428 43.479 31.3434 43.3183 31.6708 43.2532C31.9981 43.1881 32.3374 43.2215 32.6458 43.3492C32.9541 43.4769 33.2177 43.6932 33.4031 43.9707C33.5885 44.2482 33.6875 44.5745 33.6875 44.9083C33.6871 45.3557 33.5092 45.7847 33.1928 46.101C32.8764 46.4174 32.4474 46.5953 32 46.5958ZM32 44.0645C31.8331 44.0645 31.67 44.114 31.5312 44.2067C31.3925 44.2994 31.2843 44.4312 31.2205 44.5854C31.1566 44.7395 31.1399 44.9092 31.1725 45.0729C31.205 45.2365 31.2854 45.3869 31.4034 45.5049C31.5214 45.6229 31.6717 45.7032 31.8354 45.7358C31.9991 45.7683 32.1687 45.7516 32.3229 45.6878C32.4771 45.6239 32.6088 45.5158 32.7016 45.377C32.7943 45.2383 32.8438 45.0751 32.8438 44.9083C32.8435 44.6847 32.7544 44.4704 32.5962 44.3124C32.438 44.1544 32.2236 44.0656 32 44.0656V44.0645ZM41 46.5958C40.6662 46.5958 40.34 46.4968 40.0625 46.3114C39.785 46.1259 39.5687 45.8624 39.441 45.554C39.3132 45.2457 39.2798 44.9064 39.3449 44.579C39.41 44.2517 39.5708 43.951 39.8068 43.715C40.0428 43.479 40.3434 43.3183 40.6708 43.2532C40.9981 43.1881 41.3374 43.2215 41.6458 43.3492C41.9541 43.4769 42.2177 43.6932 42.4031 43.9707C42.5885 44.2482 42.6875 44.5745 42.6875 44.9083C42.6871 45.3557 42.5092 45.7847 42.1928 46.101C41.8764 46.4174 41.4474 46.5953 41 46.5958ZM41 44.0645C40.8331 44.0645 40.67 44.114 40.5312 44.2067C40.3925 44.2994 40.2843 44.4312 40.2205 44.5854C40.1566 44.7395 40.1399 44.9092 40.1725 45.0729C40.205 45.2365 40.2854 45.3869 40.4034 45.5049C40.5214 45.6229 40.6717 45.7032 40.8354 45.7358C40.9991 45.7683 41.1687 45.7516 41.3229 45.6878C41.4771 45.6239 41.6088 45.5158 41.7016 45.377C41.7943 45.2383 41.8438 45.0751 41.8438 44.9083C41.8435 44.6847 41.7544 44.4704 41.5962 44.3124C41.438 44.1544 41.2236 44.0656 41 44.0656V44.0645ZM27.5 42.317C27.1662 42.317 26.84 42.218 26.5625 42.0326C26.285 41.8471 26.0687 41.5836 25.941 41.2752C25.8132 40.9669 25.7798 40.6276 25.8449 40.3002C25.91 39.9729 26.0708 39.6722 26.3068 39.4362C26.5428 39.2002 26.8434 39.0395 27.1708 38.9744C27.4981 38.9093 27.8374 38.9427 28.1458 39.0704C28.4541 39.1981 28.7177 39.4144 28.9031 39.6919C29.0885 39.9694 29.1875 40.2957 29.1875 40.6295C29.1871 41.0769 29.0092 41.5059 28.6928 41.8222C28.3764 42.1386 27.9474 42.3165 27.5 42.317ZM27.5 39.7866C27.3331 39.7866 27.17 39.836 27.0312 39.9287C26.8925 40.0215 26.7843 40.1532 26.7205 40.3074C26.6566 40.4616 26.6399 40.6312 26.6725 40.7949C26.705 40.9586 26.7854 41.1089 26.9034 41.2269C27.0214 41.3449 27.1717 41.4253 27.3354 41.4578C27.4991 41.4904 27.6687 41.4737 27.8229 41.4098C27.9771 41.346 28.1088 41.2378 28.2016 41.0991C28.2943 40.9603 28.3438 40.7972 28.3438 40.6303C28.3438 40.4065 28.2549 40.1919 28.0966 40.0337C27.9384 39.8754 27.7238 39.7866 27.5 39.7866ZM36.5068 42.317C36.173 42.317 35.8467 42.218 35.5692 42.0326C35.2917 41.8471 35.0754 41.5836 34.9477 41.2752C34.82 40.9669 34.7866 40.6276 34.8517 40.3002C34.9168 39.9729 35.0775 39.6722 35.3135 39.4362C35.5495 39.2002 35.8502 39.0395 36.1775 38.9744C36.5049 38.9093 36.8442 38.9427 37.1525 39.0704C37.4609 39.1981 37.7244 39.4144 37.9099 39.6919C38.0953 39.9694 38.1943 40.2957 38.1943 40.6295C38.1938 41.0769 38.0159 41.5059 37.6995 41.8222C37.3832 42.1386 36.9542 42.3165 36.5068 42.317ZM36.5068 39.7866C36.3399 39.7866 36.1767 39.836 36.038 39.9287C35.8992 40.0215 35.7911 40.1532 35.7272 40.3074C35.6634 40.4616 35.6467 40.6312 35.6792 40.7949C35.7118 40.9586 35.7921 41.1089 35.9101 41.2269C36.0281 41.3449 36.1785 41.4253 36.3421 41.4578C36.5058 41.4904 36.6755 41.4737 36.8296 41.4098C36.9838 41.346 37.1156 41.2378 37.2083 41.0991C37.301 40.9603 37.3505 40.7972 37.3505 40.6303C37.3505 40.4065 37.2616 40.1919 37.1034 40.0337C36.9451 39.8754 36.7305 39.7866 36.5068 39.7866ZM45.5141 42.317C45.1803 42.317 44.854 42.218 44.5765 42.0326C44.299 41.8471 44.0827 41.5836 43.955 41.2752C43.8273 40.9669 43.7939 40.6276 43.859 40.3002C43.9241 39.9729 44.0848 39.6722 44.3208 39.4362C44.5568 39.2002 44.8575 39.0395 45.1848 38.9744C45.5122 38.9093 45.8515 38.9427 46.1598 39.0704C46.4682 39.1981 46.7317 39.4144 46.9172 39.6919C47.1026 39.9694 47.2016 40.2957 47.2016 40.6295C47.2012 41.0769 47.0232 41.5059 46.7069 41.8222C46.3905 42.1386 45.9615 42.3165 45.5141 42.317ZM45.5141 39.7866C45.3472 39.7866 45.1841 39.836 45.0453 39.9287C44.9065 40.0215 44.7984 40.1532 44.7345 40.3074C44.6707 40.4616 44.654 40.6312 44.6865 40.7949C44.7191 40.9586 44.7994 41.1089 44.9174 41.2269C45.0354 41.3449 45.1858 41.4253 45.3495 41.4578C45.5131 41.4904 45.6828 41.4737 45.837 41.4098C45.9911 41.346 46.1229 41.2378 46.2156 41.0991C46.3083 40.9603 46.3578 40.7972 46.3578 40.6303C46.3578 40.4065 46.2689 40.1919 46.1107 40.0337C45.9524 39.8754 45.7378 39.7866 45.5141 39.7866ZM32 33.8613C30.6205 33.8598 29.2979 33.3112 28.3225 32.3357C27.347 31.3603 26.7984 30.0377 26.7969 28.6582C26.7969 25.9353 31.4375 17.9516 31.6356 17.6141C31.6728 17.5504 31.726 17.4976 31.7899 17.4609C31.8539 17.4242 31.9263 17.4048 32 17.4048C32.0737 17.4048 32.1462 17.4242 32.2101 17.4609C32.274 17.4976 32.3272 17.5504 32.3644 17.6141C32.5625 17.9516 37.2031 25.9353 37.2031 28.6585C37.2016 30.0379 36.6529 31.3604 35.6774 32.3358C34.702 33.3112 33.3794 33.8598 32 33.8613ZM32 18.673C30.5118 21.2984 27.6406 26.7574 27.6406 28.6585C27.6406 29.8147 28.0999 30.9235 28.9175 31.741C29.735 32.5586 30.8438 33.0178 32 33.0178C33.1562 33.0178 34.265 32.5586 35.0825 31.741C35.9001 30.9235 36.3594 29.8147 36.3594 28.6585C36.3594 26.7568 33.4882 21.2984 32 18.673Z" fill="#007F48"></path><path d="M33.1156 31.6168C33.0248 31.6169 32.9364 31.5876 32.8635 31.5334C32.7906 31.4792 32.7371 31.4029 32.7111 31.3159C32.685 31.2289 32.6878 31.1358 32.7189 31.0504C32.75 30.9651 32.8078 30.8921 32.8837 30.8422C33.3359 30.5469 33.7071 30.1433 33.9637 29.6682C34.2204 29.193 34.3544 28.6613 34.3536 28.1213C34.3536 28.0094 34.398 27.9021 34.4771 27.823C34.5562 27.7438 34.6635 27.6994 34.7754 27.6994C34.8873 27.6994 34.9946 27.7438 35.0737 27.823C35.1529 27.9021 35.1973 28.0094 35.1973 28.1213C35.198 28.8012 35.0292 29.4706 34.7061 30.0689C34.383 30.6671 33.9158 31.1754 33.3468 31.5476C33.2782 31.5928 33.1978 31.6168 33.1156 31.6168Z" fill="#007F48"></path></g></svg>