<svg xmlns="http://www.w3.org/2000/svg" width="20" height="20" viewBox="0 0 20 20" fill="none"><rect x="1" y="1" width="18" height="18" rx="4" fill="#027F48"></rect><path d="M15.4482 7.06081C15.4158 7.13906 15.3681 7.21011 15.3081 7.26984L9.12647 13.4515C8.91093 13.6664 8.619 13.787 8.31465 13.787C8.01031 13.787 7.71825 13.6662 7.5027 13.4514L4.69195 10.6406L4.69111 10.6398C4.63069 10.5798 4.5827 10.5084 4.54991 10.4298C4.51711 10.3513 4.50015 10.267 4.5 10.1818C4.49985 10.0967 4.51651 10.0123 4.54903 9.93362C4.58155 9.85492 4.62928 9.78342 4.6895 9.72321C4.74971 9.66299 4.82122 9.61526 4.89992 9.58274C4.97862 9.55023 5.06296 9.53357 5.14811 9.53372C5.23327 9.53387 5.31755 9.55083 5.39614 9.58363C5.47472 9.61642 5.54606 9.66441 5.60606 9.72484L8.31465 12.4335L14.3926 6.35552C14.4831 6.26503 14.5984 6.20341 14.7238 6.17845C14.8493 6.15348 14.9794 6.1663 15.0976 6.21527C15.2158 6.26424 15.3169 6.34716 15.3879 6.45356C15.459 6.55995 15.4969 6.68504 15.4969 6.81299L15.4969 6.81395C15.4972 6.89865 15.4806 6.98255 15.4482 7.06081Z" fill="white"></path><rect x="2" y="2" width="16" height="16" rx="3" stroke="#027F48" stroke-width="2"></rect></svg>