<?xml version="1.0" encoding="UTF-8"?> <svg xmlns="http://www.w3.org/2000/svg" width="40" height="40" viewBox="0 0 40 40" fill="none"><circle cx="20" cy="20" r="20" fill="#1877F2"></circle><path d="M15.4962 20.6208H17.5841V29.2165C17.5841 29.3862 17.7216 29.5237 17.8913 29.5237H21.4315C21.6012 29.5237 21.7387 29.3862 21.7387 29.2165V20.6613H24.1389C24.295 20.6613 24.4263 20.5442 24.4441 20.3892L24.8087 17.2247C24.8187 17.1376 24.7911 17.0505 24.7329 16.9851C24.6746 16.9198 24.5911 16.8823 24.5036 16.8823H21.7388V14.8987C21.7388 14.3007 22.0608 13.9975 22.6959 13.9975C22.7864 13.9975 24.5036 13.9975 24.5036 13.9975C24.6733 13.9975 24.8108 13.8599 24.8108 13.6903V10.7856C24.8108 10.6159 24.6733 10.4783 24.5036 10.4783H22.0123C21.9947 10.4775 21.9557 10.4761 21.8982 10.4761C21.466 10.4761 19.9635 10.5609 18.7766 11.6528C17.4616 12.8627 17.6444 14.3115 17.6881 14.5626V16.8823H15.4962C15.3265 16.8823 15.189 17.0198 15.189 17.1895V20.3136C15.189 20.4833 15.3265 20.6208 15.4962 20.6208Z" fill="white"></path></svg> 