<?xml version="1.0" encoding="UTF-8"?> <svg xmlns="http://www.w3.org/2000/svg" width="40" height="40" viewBox="0 0 40 40" fill="none"><circle cx="20" cy="20" r="20" fill="#00D075"></circle><path d="M20.0001 10C17.917 10.0024 15.9198 10.8309 14.4469 12.3039C12.9739 13.7769 12.1453 15.774 12.1429 17.8571C12.1429 24.5804 19.2858 29.658 19.5903 29.8705C19.7104 29.9547 19.8535 29.9998 20.0001 29.9998C20.1467 29.9998 20.2898 29.9547 20.4099 29.8705C20.7144 29.658 27.8572 24.5804 27.8572 17.8571C27.8549 15.774 27.0263 13.7769 25.5533 12.3039C24.0803 10.8309 22.0832 10.0024 20.0001 10ZM20.0001 15C20.5652 15 21.1176 15.1676 21.5874 15.4815C22.0573 15.7955 22.4235 16.2417 22.6397 16.7638C22.856 17.2858 22.9126 17.8603 22.8023 18.4145C22.6921 18.9688 22.42 19.4779 22.0204 19.8774C21.6208 20.277 21.1117 20.5491 20.5575 20.6594C20.0033 20.7696 19.4288 20.713 18.9067 20.4968C18.3846 20.2805 17.9384 19.9143 17.6245 19.4445C17.3105 18.9746 17.1429 18.4222 17.1429 17.8571C17.1429 17.0994 17.444 16.3727 17.9798 15.8368C18.5156 15.301 19.2423 15 20.0001 15Z" fill="white"></path></svg> 