<?xml version="1.0" encoding="UTF-8"?> <svg xmlns="http://www.w3.org/2000/svg" width="40" height="40" viewBox="0 0 40 40" fill="none"><g clip-path="url(#clip0_1790_6545)"><path fill-rule="evenodd" clip-rule="evenodd" d="M18.2262 0.132812H21.7598C26.6128 0.132812 29.4488 0.845608 31.9664 2.19537C34.4839 3.54512 36.4706 5.51668 37.8052 8.03424C39.1549 10.5518 39.8677 13.3878 39.8677 18.2408V21.7593C39.8677 26.6123 39.1549 29.4483 37.8052 31.9658C36.4554 34.4834 34.4839 36.4702 31.9664 37.8047C29.4488 39.1545 26.6128 39.8673 21.7598 39.8673H18.2413C13.3883 39.8673 10.5523 39.1545 8.03477 37.8047C5.51727 36.455 3.53055 34.4834 2.19597 31.9658C0.84621 29.4483 0.133423 26.6123 0.133423 21.7593V18.2408C0.133423 13.3878 0.84621 10.5518 2.19597 8.03424C3.54572 5.51668 5.51727 3.52996 8.03477 2.19537C10.5372 0.845608 13.3883 0.132812 18.2262 0.132812Z" fill="#0068FF"></path><path opacity="0.12" fill-rule="evenodd" clip-rule="evenodd" d="M39.8669 21.1787V21.7594C39.8669 26.6124 39.1542 29.4484 37.8044 31.9659C36.4546 34.4834 34.483 36.4701 31.9655 37.8048C29.448 39.1546 26.612 39.8674 21.759 39.8674H18.2406C14.2695 39.8674 11.649 39.3901 9.44832 38.4771L5.82031 34.7412L39.8669 21.1787Z" fill="#0068FF"></path><path fill-rule="evenodd" clip-rule="evenodd" d="M6.22381 34.8714C8.08213 35.0768 10.4055 34.5469 12.0552 33.746C19.2186 37.7054 30.4164 37.5163 37.1945 33.1786C37.4573 32.7842 37.7029 32.3742 37.9309 31.949C39.2856 29.4223 40.0009 26.576 40.0009 21.7053V18.174C40.0009 13.3032 39.2856 10.4569 37.9309 7.93018C36.5914 5.40349 34.5975 3.42474 32.0708 2.07006C29.5441 0.715391 26.6977 0 21.827 0H18.2805C14.1321 0 11.4392 0.522203 9.17653 1.51914C9.05285 1.6299 8.93149 1.74254 8.81269 1.85708C2.17448 8.25624 1.66987 22.1274 7.29884 29.6626C7.30512 29.6737 7.31207 29.6849 7.31972 29.6962C8.18733 30.9748 7.35016 33.2123 6.04115 34.5213C5.82806 34.7192 5.90416 34.841 6.22381 34.8714Z" fill="#FAFAFA"></path><path d="M16.4494 13.6001H8.66935V15.2683H14.0683L8.74511 21.8655C8.57831 22.1081 8.45703 22.3356 8.45703 22.8512V23.2759H15.7972C16.1612 23.2759 16.4646 22.9726 16.4646 22.6086V21.7138H10.7926L15.7972 15.4351C15.873 15.3442 16.0095 15.1774 16.0702 15.1015L16.1006 15.056C16.3887 14.6314 16.4494 14.2674 16.4494 13.8276V13.6001Z" fill="#0068FF"></path><path d="M26.3554 23.2759H27.4626V13.6001H25.7943V22.7147C25.7943 23.0181 26.037 23.2759 26.3554 23.2759Z" fill="#0068FF"></path><path d="M20.6534 15.7534C18.5605 15.7534 16.8619 17.452 16.8619 19.5449C16.8619 21.6377 18.5605 23.3363 20.6534 23.3363C22.7463 23.3363 24.4448 21.6377 24.4448 19.5449C24.46 17.452 22.7615 15.7534 20.6534 15.7534ZM20.6534 21.7742C19.425 21.7742 18.424 20.7733 18.424 19.5449C18.424 18.3165 19.425 17.3155 20.6534 17.3155C21.8818 17.3155 22.8827 18.3165 22.8827 19.5449C22.8827 20.7733 21.897 21.7742 20.6534 21.7742Z" fill="#0068FF"></path><path d="M32.3894 15.6929C30.2813 15.6929 28.5676 17.4066 28.5676 19.5146C28.5676 21.6227 30.2813 23.3365 32.3894 23.3365C34.4974 23.3365 36.2111 21.6227 36.2111 19.5146C36.2111 17.4066 34.4974 15.6929 32.3894 15.6929ZM32.3894 21.7744C31.1458 21.7744 30.1448 20.7734 30.1448 19.5298C30.1448 18.2862 31.1458 17.2853 32.3894 17.2853C33.633 17.2853 34.6339 18.2862 34.6339 19.5298C34.6339 20.7734 33.633 21.7744 32.3894 21.7744Z" fill="#0068FF"></path><path d="M23.5644 23.2757H24.4592V15.9658H22.8971V22.6237C22.8971 22.9725 23.2004 23.2757 23.5644 23.2757Z" fill="#0068FF"></path></g><defs><clipPath id="clip0_1790_6545"><rect width="40" height="40" fill="white"></rect></clipPath></defs></svg> 