<svg xmlns="http://www.w3.org/2000/svg" width="85" height="38" viewBox="0 0 85 38" fill="none"><path d="M23.7833 10.9601L23.3004 4.92615C23.3004 4.92615 23.4108 5.04908 21.4797 4.68156C19.5481 4.31404 13.6132 2.9462 7.35601 6.00864C7.35601 6.00864 -1.05425 10.2915 1.14898 20.4114C1.45064 21.9862 3.17095 27.9894 11.1685 29.674C12.2548 29.9192 16.6311 30.6536 21.0369 29.398C22.0028 29.092 23.7833 28.663 24.1759 28.663C24.5685 28.6016 24.6889 28.4485 24.719 28.1732C24.7491 27.8979 24.6287 27.7135 24.4776 27.6527C24.1458 27.4382 23.9645 27.2851 23.9043 26.3971C23.8441 25.509 23.8742 21.9862 23.8742 21.9862C23.8742 21.9862 23.7939 20.5419 25.2828 20.4114C25.6246 20.4033 26.1885 20.5055 26.2487 19.9135C26.3089 19.4644 26.3089 19.117 25.6046 19.1377C24.9003 19.1584 15.0218 19.0354 15.0218 19.0354C15.0218 19.0354 14.579 19.0555 14.6192 19.5252C14.6593 19.995 14.6794 20.2352 15.1222 20.2885L17.2144 20.6077C17.2144 20.6077 18.4016 20.6893 18.4618 21.874C18.522 23.0581 18.4819 26.7132 18.4819 26.7132C18.4819 26.7132 18.7033 28.2855 16.5101 28.2648C15.5242 28.2648 15.4038 28.2855 15.4038 28.2855C15.4038 28.2855 13.6935 28.2648 12.1243 27.5504C10.5552 26.8361 6.79282 24.069 6.67177 17.8821C6.67177 16.412 6.15875 5.9986 15.0011 5.69192C15.4238 5.72265 20.1922 5.29367 22.0931 10.2865C22.2743 10.8071 22.4556 11.2668 22.9078 11.236C23.3606 11.2053 23.5719 11.0523 23.7833 10.9601Z" fill="#007F48"></path><path d="M43.7301 10.0494C43.7301 10.0494 43.6072 6.59441 43.1155 5.09549C43.0233 4.97319 43.1155 4.82016 42.716 4.88162C42.2243 4.79006 39.5194 3.81733 36.7228 4.05879C33.9263 4.30024 30.0229 5.15695 28.8858 9.62109C28.7322 10.3241 28.2405 14.269 31.8974 16.9602C32.3584 17.2963 36.4155 19.529 36.5692 19.7121C36.5692 19.7121 41.3331 22.7395 38.9047 26.7144C38.3516 27.4175 36.016 29.5887 32.2355 27.112C31.7131 26.7451 29.6541 24.6962 29.1317 22.831C29.1317 22.831 29.0545 22.2195 28.6243 22.1581C28.2555 22.143 28.1169 22.1273 28.1169 22.1273C28.1169 22.1273 27.5945 22.2804 27.5945 22.5557C27.5945 22.831 27.8253 27.8 28.8237 28.5796C29.5155 28.9465 31.6974 30.0014 34.8319 29.9863C35.6309 30.0014 38.4538 30.1086 41.1374 28.5595C41.7113 28.1726 46.3724 25.6752 44.0061 19.1922C43.8524 18.8253 43.1048 16.4503 37.6341 13.9228C37.409 13.8206 33.9257 12.3329 33.4955 9.84562C33.434 9.3765 32.8601 4.97319 38.3309 5.84996C38.6175 5.95219 40.7894 6.64521 41.7527 9.03031C42.1008 9.88638 42.2651 10.3147 42.2651 10.3147C42.2651 10.3147 42.5109 10.6001 42.8797 10.6208C43.2485 10.6415 43.3507 10.58 43.3507 10.58C43.3507 10.58 43.7464 10.437 43.7295 10.0501L43.7301 10.0494Z" fill="#007F48"></path><path d="M68.9208 10.5794L68.4787 5.03465C68.4787 5.03465 64.9835 4.30651 62.6135 4.05879C61.5291 4.09641 58.074 3.56646 52.9721 5.8092C52.9721 5.8092 48.2113 7.87821 46.5543 13.8413C46.3737 14.6058 44.0839 23.8709 52.8216 28.335C53.7554 28.7326 59.7818 31.79 68.278 28.5489C68.7603 27.5398 69.4232 25.6439 69.664 22.9834C69.6941 22.8611 69.8145 22.7081 69.2118 22.3412C68.9108 22.2798 68.5188 22.1273 68.1877 22.8611C67.8565 23.5949 66.3194 27.2644 62.7646 28.029C62.1619 28.2428 57.5823 29.4049 53.9969 24.3902C53.9969 24.3902 50.0802 18.2948 53.2135 10.7625C53.4845 10.141 55.8652 5.92083 59.8721 5.7377C60.4447 5.70697 64.7834 5.27924 66.7722 9.22347C67.0431 9.77412 67.4953 10.6609 67.4953 10.9356C67.4953 10.9356 67.405 11.3941 68.1883 11.2718C68.4291 11.2718 68.9735 11.2298 68.9215 10.5788L68.9208 10.5794Z" fill="#007F48"></path><path d="M84.1083 5.57589V7.84559C84.1083 7.84559 84.0274 9.15574 82.2475 9.09428C80.5905 9.13504 80.2123 9.09616 80.2123 9.09616V11.2831C80.2123 11.2831 80.3854 12.7155 79.0151 12.94H76.6413C76.6413 12.94 75.3386 12.8786 75.3455 11.3652C75.3524 9.85126 75.3455 9.13441 75.3455 9.13441L73.1636 9.11434C73.1636 9.11434 71.6283 9.13441 71.5267 7.76406C71.5211 7.37146 71.518 7.01648 71.5173 6.71106C71.5173 6.40563 71.5211 6.05065 71.5267 5.65805C71.6283 4.2877 73.1636 4.30777 73.1636 4.30777L75.3455 4.2877C75.3455 4.2877 75.3524 3.57148 75.3455 2.05688C75.3386 0.543537 76.6413 0.482075 76.6413 0.482075H79.0151C80.3854 0.706599 80.2123 2.13904 80.2123 2.13904V4.32596C80.2123 4.32596 80.5905 4.28707 82.2475 4.32784C84.0274 4.26638 84.1083 5.57652 84.1083 5.57652V5.57589Z" fill="#007F48"></path><path d="M26.2524 35.9927H25.4867V35.5963H26.662V37.3411C26.6268 37.3611 26.5754 37.3812 26.5077 37.4019C26.4399 37.4226 26.3622 37.442 26.2756 37.4596C26.1885 37.4778 26.095 37.4922 25.9959 37.5029C25.8962 37.5135 25.7977 37.5192 25.7005 37.5192C25.4127 37.5192 25.1586 37.4772 24.9385 37.3925C24.7184 37.3078 24.534 37.1887 24.3847 37.0338C24.2355 36.8795 24.1226 36.6913 24.0461 36.4699C23.9689 36.2485 23.9307 36.0027 23.9307 35.7311C23.9307 35.4364 23.9727 35.1686 24.0574 34.9271C24.1414 34.6863 24.2637 34.4806 24.4242 34.3094C24.5842 34.1388 24.778 34.0071 25.005 33.9142C25.232 33.8214 25.4816 33.775 25.7545 33.775C25.8278 33.775 25.9018 33.7782 25.9752 33.7844C26.0486 33.7907 26.1188 33.7995 26.1859 33.8114C26.2531 33.8233 26.3151 33.8371 26.3722 33.8534C26.4287 33.8697 26.4769 33.8867 26.5152 33.9048V34.2931C26.4149 34.2573 26.2995 34.2272 26.1684 34.2027C26.0379 34.1783 25.9075 34.1664 25.777 34.1664C25.5864 34.1664 25.4039 34.1977 25.2308 34.2592C25.0577 34.3213 24.9046 34.4154 24.7723 34.5414C24.64 34.6675 24.5346 34.8249 24.4562 35.0149C24.3772 35.2043 24.3383 35.427 24.3383 35.6822C24.3383 35.9375 24.3709 36.1482 24.4362 36.3295C24.5014 36.5113 24.5942 36.6612 24.7134 36.7798C24.8332 36.8983 24.978 36.9861 25.1486 37.0425C25.3192 37.099 25.5092 37.1272 25.7175 37.1272C25.814 37.1272 25.91 37.1216 26.0034 37.1109C26.0975 37.1002 26.1809 37.0852 26.2543 37.0651V35.9914L26.2524 35.9927Z" fill="#252525"></path><path d="M27.8999 33.8428V37.0551H29.5399V37.4514H27.491V33.8428H27.9005H27.8999Z" fill="#252525"></path><path d="M32.9699 35.6496C32.9699 35.923 32.9335 36.1739 32.8601 36.4022C32.7874 36.6305 32.6826 36.8274 32.5459 36.993C32.4098 37.1586 32.2455 37.2871 32.0542 37.38C31.8623 37.4721 31.6478 37.5186 31.4101 37.5186C31.1724 37.5186 30.9441 37.4721 30.7497 37.38C30.5553 37.2871 30.391 37.1586 30.2568 36.993C30.1219 36.8274 30.0191 36.6305 29.9476 36.4022C29.8761 36.1739 29.8403 35.923 29.8403 35.6496C29.8403 35.3762 29.8773 35.1222 29.9513 34.8932C30.0253 34.6637 30.1301 34.4668 30.2655 34.3012C30.401 34.1356 30.5647 34.0071 30.7579 33.9142C30.9504 33.8214 31.1662 33.775 31.4057 33.775C31.6453 33.775 31.8686 33.8214 32.0617 33.9142C32.2549 34.0064 32.4192 34.1356 32.5541 34.3012C32.6883 34.4668 32.7911 34.6637 32.8626 34.8932C32.9341 35.1222 32.9699 35.3749 32.9699 35.6496ZM32.5635 35.6496C32.5635 35.4069 32.534 35.193 32.4744 35.008C32.4155 34.823 32.3333 34.6681 32.2292 34.5439C32.1251 34.4197 32.0022 34.3257 31.861 34.2617C31.7193 34.1977 31.5675 34.1657 31.4051 34.1657C31.2427 34.1657 31.0909 34.1977 30.9492 34.2617C30.808 34.3257 30.6851 34.4197 30.581 34.5439C30.4769 34.6681 30.3954 34.8224 30.3358 35.008C30.2768 35.193 30.2467 35.4069 30.2467 35.6496C30.2467 35.8923 30.2768 36.1056 30.337 36.2899C30.3973 36.4743 30.4794 36.6286 30.5829 36.7522C30.687 36.8763 30.8099 36.9698 30.951 37.0325C31.0922 37.0952 31.2452 37.1272 31.4089 37.1272C31.5726 37.1272 31.7224 37.0958 31.8623 37.0325C32.0022 36.9698 32.1238 36.8763 32.2279 36.7522C32.332 36.628 32.4136 36.4737 32.4732 36.2899C32.5321 36.1056 32.5622 35.8923 32.5622 35.6496H32.5635Z" fill="#252525"></path><path d="M35.3557 35.585C35.4598 35.6013 35.5532 35.6308 35.636 35.6741C35.7188 35.7173 35.7896 35.7725 35.8492 35.8396C35.9082 35.9074 35.9546 35.987 35.986 36.0798C36.0179 36.1727 36.0336 36.278 36.0336 36.3966C36.0336 36.4812 36.0217 36.5697 35.9991 36.6625C35.9759 36.7553 35.937 36.845 35.8837 36.9322C35.8298 37.0193 35.7595 37.0996 35.6724 37.1736C35.5852 37.2476 35.4773 37.3078 35.3481 37.3542C35.2484 37.39 35.1387 37.4151 35.0176 37.4295C34.8966 37.4439 34.7517 37.4508 34.583 37.4508H33.7231V33.8421H34.5523C34.6281 33.8421 34.6971 33.8434 34.7592 33.8465C34.8213 33.849 34.8784 33.8534 34.9304 33.8584C34.9825 33.8634 35.0308 33.8703 35.0759 33.8785C35.1205 33.8867 35.1631 33.8961 35.2026 33.9067C35.3067 33.9375 35.4014 33.9788 35.4867 34.0322C35.572 34.0855 35.6441 34.1482 35.7044 34.2222C35.7639 34.2962 35.8097 34.3796 35.8417 34.4731C35.8743 34.5665 35.89 34.6681 35.89 34.7779C35.89 34.8657 35.8806 34.9503 35.8611 35.0312C35.8417 35.1121 35.811 35.1868 35.7683 35.2551C35.7257 35.3235 35.6705 35.3849 35.6028 35.4383C35.535 35.4922 35.4522 35.5373 35.355 35.5731V35.5838L35.3557 35.585ZM34.7555 35.4044C34.8357 35.4044 34.9053 35.4 34.9637 35.3925C35.0226 35.3843 35.0753 35.3724 35.1223 35.3561C35.2478 35.3109 35.3393 35.2413 35.397 35.146C35.4547 35.0507 35.4836 34.9384 35.4836 34.8086C35.4836 34.6788 35.4535 34.5665 35.3933 34.4825C35.3331 34.3978 35.2384 34.3351 35.1092 34.2937C35.0458 34.2742 34.9718 34.2598 34.8884 34.2517C34.8044 34.2435 34.7059 34.2391 34.5918 34.2391H34.1321V35.4044H34.7548H34.7555ZM34.1327 35.8008V37.0551H34.6275C34.7448 37.0551 34.8533 37.0494 34.9536 37.0375C35.054 37.0262 35.1393 37.0074 35.2095 36.9823C35.2867 36.9554 35.3519 36.9209 35.4052 36.8782C35.4585 36.8362 35.5018 36.7892 35.5344 36.7384C35.567 36.6869 35.5902 36.6324 35.6046 36.5753C35.6191 36.5176 35.626 36.4593 35.626 36.4003C35.626 36.332 35.6184 36.268 35.6034 36.2078C35.5883 36.1476 35.5639 36.0936 35.5294 36.046C35.4949 35.9983 35.4497 35.9569 35.3939 35.9205C35.3381 35.8848 35.2679 35.8566 35.1844 35.8371C35.1343 35.8246 35.0766 35.8158 35.0126 35.8102C34.948 35.8045 34.8683 35.802 34.773 35.802H34.1327V35.8008Z" fill="#252525"></path><path d="M36.4355 37.4514L37.804 33.8428H38.1584L39.5268 37.4514H39.0822L38.6808 36.3646H37.2759L36.8746 37.4514H36.4355ZM37.9777 34.4041C37.8278 34.8531 37.6849 35.2614 37.5481 35.6283L37.4227 35.9682H38.5365L38.4092 35.6289C38.2713 35.2551 38.1308 34.8468 37.9878 34.4041H37.9777Z" fill="#252525"></path><path d="M40.4514 33.8428V37.0551H42.0914V37.4514H40.0425V33.8428H40.452H40.4514Z" fill="#252525"></path><path d="M43.9497 34.7973C43.9497 34.9033 43.9698 34.9911 44.0099 35.0601C44.05 35.1291 44.1033 35.1861 44.1717 35.2313C44.2394 35.2764 44.3178 35.3128 44.4069 35.3417C44.4966 35.3705 44.5894 35.3975 44.6866 35.4226C44.8171 35.4564 44.945 35.4947 45.0711 35.5361C45.1971 35.5775 45.3094 35.6346 45.4078 35.7073C45.5063 35.7801 45.586 35.8748 45.6468 35.992C45.7076 36.1087 45.7384 36.2592 45.7384 36.4423C45.7384 36.6255 45.7051 36.791 45.6393 36.9265C45.5734 37.0626 45.4819 37.1736 45.3658 37.2608C45.2492 37.348 45.1112 37.4126 44.9525 37.4546C44.7932 37.4966 44.6195 37.5179 44.4301 37.5179C44.3429 37.5179 44.2539 37.5123 44.1629 37.5004C44.072 37.4885 43.9848 37.4728 43.902 37.4533C43.8192 37.4333 43.744 37.4113 43.6775 37.3856C43.6104 37.3605 43.5577 37.3354 43.5195 37.3103V36.9083C43.5797 36.9409 43.6474 36.9704 43.7227 36.9974C43.7979 37.0243 43.8757 37.0476 43.956 37.0664C44.0362 37.0852 44.1178 37.1002 44.1993 37.1109C44.2815 37.1216 44.358 37.1272 44.4301 37.1272C44.5474 37.1272 44.659 37.1165 44.7656 37.0946C44.8716 37.0733 44.9651 37.0369 45.0453 36.9867C45.1256 36.9365 45.189 36.8676 45.236 36.7804C45.2824 36.6932 45.3062 36.5841 45.3062 36.453C45.3062 36.3451 45.2855 36.2561 45.2448 36.1858C45.204 36.1156 45.1488 36.0579 45.0798 36.0121C45.0115 35.9663 44.9325 35.9287 44.8428 35.9005C44.7531 35.8716 44.659 35.8447 44.5599 35.8196C44.4295 35.787 44.3022 35.7506 44.1774 35.7104C44.0525 35.6697 43.9409 35.6139 43.8431 35.5417C43.7452 35.4696 43.6662 35.3774 43.6066 35.2639C43.5477 35.1504 43.5176 35.0061 43.5176 34.8299C43.5176 34.6537 43.5489 34.4887 43.611 34.3564C43.6737 34.2241 43.7578 34.1149 43.865 34.0284C43.9716 33.9418 44.0946 33.8785 44.2332 33.8371C44.3724 33.7957 44.5204 33.775 44.6778 33.775C44.8572 33.775 45.024 33.7938 45.1789 33.8302C45.3338 33.8672 45.4756 33.9149 45.6048 33.9745V34.3815C45.4655 34.3188 45.3219 34.2673 45.1739 34.2278C45.0259 34.1883 44.8672 34.1676 44.6979 34.1657C44.5706 34.1657 44.4602 34.1808 44.3661 34.2103C44.2727 34.2397 44.1949 34.2824 44.1328 34.337C44.0707 34.3915 44.0243 34.458 43.9948 34.5364C43.9647 34.6148 43.9497 34.7013 43.9497 34.7967V34.7973Z" fill="#252525"></path><path d="M46.8705 35.4044H48.6309V33.8428H49.0405V37.4514H48.6309V35.8008H46.8705V37.4514H46.4609V33.8428H46.8705V35.4044Z" fill="#252525"></path><path d="M49.894 37.4514V33.8428H50.3036V37.4514H49.894Z" fill="#252525"></path><path d="M51.5665 37.0551H53.2893V37.4514H51.157V33.8428H53.1959V34.2391H51.5659V35.4044H53.0146V35.8008H51.5659V37.0551H51.5665Z" fill="#252525"></path><path d="M54.4021 33.8428V37.0551H56.0421V37.4514H53.9932V33.8428H54.4027H54.4021Z" fill="#252525"></path><path d="M59.3917 35.6308C59.3917 35.8409 59.3672 36.0391 59.319 36.2241C59.2707 36.4091 59.1973 36.5759 59.0994 36.7246C59.0016 36.8726 58.8793 37.0011 58.7326 37.109C58.5858 37.2169 58.4146 37.3003 58.2189 37.3599C58.1066 37.3938 57.9856 37.4176 57.8545 37.4314C57.7241 37.4452 57.5823 37.4514 57.4299 37.4514H56.6692V33.8428H57.4375C57.5899 33.8428 57.731 33.8496 57.8621 33.8628C57.9925 33.8766 58.1135 33.8998 58.2258 33.9343C58.4215 33.9939 58.5927 34.0767 58.7395 34.1827C58.8856 34.2887 59.0073 34.4141 59.1032 34.559C59.1998 34.7038 59.2713 34.8663 59.3196 35.0475C59.3672 35.2282 59.3911 35.4226 59.3911 35.6314L59.3917 35.6308ZM58.9847 35.6308C58.9847 35.284 58.9132 35.0024 58.7708 34.7866C58.6284 34.5709 58.424 34.4179 58.1574 34.3282C58.0558 34.2943 57.9417 34.2705 57.8163 34.2579C57.6908 34.2454 57.5491 34.2391 57.3911 34.2391H57.0781V37.0551H57.3911C57.5491 37.0551 57.6902 37.0488 57.8163 37.0363C57.9417 37.0237 58.0558 37.0005 58.1574 36.966C58.424 36.8763 58.6284 36.7189 58.7708 36.4938C58.9132 36.2692 58.9847 35.9814 58.9847 35.6308Z" fill="#252525"></path><path d="M62.5721 34.1664C62.384 34.1664 62.2084 34.1984 62.0447 34.2623C61.881 34.3263 61.7393 34.4216 61.6188 34.5483C61.4984 34.675 61.4037 34.8324 61.3341 35.0206C61.2645 35.2087 61.23 35.4276 61.23 35.6772C61.23 35.9268 61.262 36.1407 61.3266 36.3232C61.3912 36.5057 61.4827 36.6568 61.6013 36.7766C61.7198 36.8964 61.8628 36.9848 62.0296 37.0425C62.1965 37.1002 62.3827 37.1291 62.5878 37.1291C62.6436 37.1291 62.7032 37.1259 62.7659 37.1197C62.8286 37.1134 62.8914 37.1046 62.9553 37.0927C63.0193 37.0814 63.0808 37.0676 63.141 37.0519C63.2012 37.0369 63.2551 37.02 63.3028 37.0024V37.3906C63.2037 37.432 63.0889 37.464 62.9585 37.4866C62.828 37.5091 62.6938 37.5204 62.5564 37.5204C62.2767 37.5204 62.029 37.4784 61.8133 37.395C61.5969 37.3116 61.4156 37.1912 61.2695 37.035C61.1234 36.8788 61.0117 36.6876 60.9371 36.4618C60.8619 36.236 60.8242 35.9801 60.8242 35.6948C60.8242 35.4094 60.8644 35.156 60.9434 34.9208C61.023 34.685 61.1378 34.4831 61.2877 34.3144C61.4376 34.145 61.6188 34.0133 61.8327 33.9193C62.0459 33.8246 62.2861 33.7775 62.5521 33.7775C62.6223 33.7775 62.6919 33.7807 62.7603 33.7869C62.8286 33.7932 62.8945 33.802 62.9578 33.8139C63.0205 33.8258 63.0789 33.8396 63.1322 33.8559C63.1855 33.8722 63.2319 33.8892 63.2702 33.9074V34.2956C63.1686 34.2598 63.0576 34.2297 62.9371 34.2053C62.8167 34.1808 62.6957 34.1689 62.5734 34.1689L62.5721 34.1664Z" fill="#252525"></path><path d="M66.9836 35.6496C66.9836 35.923 66.9472 36.1739 66.8738 36.4022C66.801 36.6305 66.6963 36.8274 66.5596 36.993C66.4235 37.1586 66.2592 37.2871 66.0679 37.38C65.876 37.4721 65.6615 37.5186 65.4238 37.5186C65.1861 37.5186 64.9578 37.4721 64.7634 37.38C64.569 37.2871 64.4047 37.1586 64.2704 36.993C64.1356 36.8274 64.0327 36.6305 63.9612 36.4022C63.8897 36.1739 63.854 35.923 63.854 35.6496C63.854 35.3762 63.891 35.1222 63.965 34.8932C64.039 34.6637 64.1438 34.4668 64.2792 34.3012C64.4147 34.1356 64.5784 34.0071 64.7715 33.9142C64.9641 33.8214 65.1798 33.775 65.4194 33.775C65.659 33.775 65.8822 33.8214 66.0754 33.9142C66.2686 34.0064 66.4329 34.1356 66.5677 34.3012C66.702 34.4668 66.8048 34.6637 66.8763 34.8932C66.9478 35.1222 66.9836 35.3749 66.9836 35.6496ZM66.5765 35.6496C66.5765 35.4069 66.547 35.193 66.4875 35.008C66.4285 34.823 66.3463 34.6681 66.2422 34.5439C66.1381 34.4197 66.0152 34.3257 65.8741 34.2617C65.7324 34.1977 65.5806 34.1657 65.4181 34.1657C65.2557 34.1657 65.1039 34.1977 64.9622 34.2617C64.8211 34.3257 64.6982 34.4197 64.5941 34.5439C64.4899 34.6681 64.4084 34.8224 64.3488 35.008C64.2899 35.193 64.2598 35.4069 64.2598 35.6496C64.2598 35.8923 64.2899 36.1056 64.3501 36.2899C64.4103 36.4743 64.4925 36.6286 64.5959 36.7522C64.7 36.8763 64.823 36.9698 64.9641 37.0325C65.1052 37.0952 65.2582 37.1272 65.4219 37.1272C65.5856 37.1272 65.7355 37.0958 65.8754 37.0325C66.0152 36.9698 66.1369 36.8763 66.241 36.7522C66.3451 36.628 66.4266 36.4737 66.4862 36.2899C66.5452 36.1056 66.5753 35.8923 66.5753 35.6496H66.5765Z" fill="#252525"></path><path d="M68.0635 34.7973C68.0635 34.9033 68.0835 34.9911 68.1237 35.0601C68.1638 35.1291 68.2171 35.1861 68.2855 35.2313C68.3532 35.2764 68.4316 35.3128 68.5207 35.3417C68.6103 35.3705 68.7032 35.3975 68.8004 35.4226C68.9308 35.4564 69.0588 35.4947 69.1848 35.5361C69.3109 35.5775 69.4232 35.6346 69.5216 35.7073C69.6201 35.7801 69.6997 35.8748 69.7606 35.992C69.8214 36.1093 69.8521 36.2592 69.8521 36.4423C69.8521 36.6255 69.8189 36.791 69.753 36.9265C69.6872 37.0626 69.5956 37.1736 69.4796 37.2608C69.3629 37.348 69.225 37.4126 69.0663 37.4546C68.907 37.4966 68.7333 37.5179 68.5439 37.5179C68.4567 37.5179 68.3676 37.5123 68.2767 37.5004C68.1858 37.4885 68.0986 37.4728 68.0158 37.4533C67.933 37.4333 67.8578 37.4113 67.7913 37.3856C67.7242 37.3605 67.6715 37.3354 67.6332 37.3103V36.9083C67.6934 36.9409 67.7612 36.9704 67.8364 36.9974C67.9117 37.0243 67.9895 37.0476 68.0697 37.0664C68.15 37.0852 68.2315 37.1002 68.3131 37.1109C68.3952 37.1216 68.4717 37.1272 68.5439 37.1272C68.6612 37.1272 68.7728 37.1165 68.8794 37.0946C68.9854 37.0733 69.0788 37.0369 69.1591 36.9867C69.2394 36.9365 69.3027 36.8676 69.3498 36.7804C69.3962 36.6932 69.42 36.5841 69.42 36.453C69.42 36.3451 69.3993 36.2561 69.3586 36.1858C69.3178 36.1156 69.2626 36.0579 69.1936 36.0121C69.1253 35.9663 69.0462 35.9287 68.9565 35.9005C68.8669 35.8716 68.7728 35.8447 68.6737 35.8196C68.5432 35.787 68.4159 35.7506 68.2911 35.7104C68.1663 35.6697 68.0547 35.6139 67.9568 35.5417C67.859 35.4696 67.78 35.3774 67.7204 35.2639C67.6615 35.1504 67.6313 35.0061 67.6313 34.8299C67.6313 34.6537 67.6627 34.4887 67.7248 34.3564C67.7875 34.2241 67.8716 34.1149 67.9788 34.0284C68.0854 33.9418 68.2083 33.8785 68.3469 33.8371C68.4862 33.7957 68.6342 33.775 68.7916 33.775C68.971 33.775 69.1378 33.7938 69.2927 33.8302C69.4476 33.8672 69.5894 33.9149 69.7185 33.9745V34.3815C69.5793 34.3188 69.4357 34.2673 69.2877 34.2278C69.1397 34.1883 68.981 34.1676 68.8117 34.1657C68.6844 34.1657 68.574 34.1808 68.4799 34.2103C68.3865 34.2397 68.3087 34.2824 68.2466 34.337C68.1845 34.3915 68.1381 34.458 68.1086 34.5364C68.0785 34.6148 68.0635 34.7013 68.0635 34.7967V34.7973Z" fill="#252525"></path><path d="M72.3552 37.4514H72.1665L71.3204 35.2965C71.2031 34.9999 71.0858 34.6769 70.9692 34.3282H70.9491C70.973 34.8299 70.9842 35.289 70.9842 35.7061V37.4508H70.5747V33.8421H71.1649L71.9557 35.8835C72.046 36.1175 72.1458 36.3991 72.2543 36.7277H72.2668C72.3872 36.3627 72.4869 36.0811 72.5653 35.8835L73.3562 33.8421H73.9463V37.4508H73.5368V35.7061C73.5368 35.2978 73.5487 34.8387 73.5719 34.3282H73.5519C73.4277 34.6969 73.311 35.0193 73.2007 35.2965L72.3546 37.4514H72.3552Z" fill="#252525"></path><path d="M75.2106 37.0551H76.9334V37.4514H74.801V33.8428H76.8399V34.2391H75.2099V35.4044H76.6587V35.8008H75.2099V37.0551H75.2106Z" fill="#252525"></path><path d="M78.842 37.4514H78.4324V34.2391H77.3098V33.8428H79.9646V34.2391H78.842V37.4514Z" fill="#252525"></path><path d="M80.4919 37.4514V33.8428H80.9015V37.4514H80.4919Z" fill="#252525"></path><path d="M83.3788 34.1664C83.1906 34.1664 83.015 34.1984 82.8513 34.2623C82.6876 34.3263 82.5459 34.4216 82.4255 34.5483C82.3051 34.675 82.2104 34.8324 82.1407 35.0206C82.0711 35.2087 82.0366 35.4276 82.0366 35.6772C82.0366 35.9268 82.0686 36.1407 82.1332 36.3232C82.1978 36.5057 82.2894 36.6568 82.4079 36.7766C82.5265 36.8964 82.6694 36.9848 82.8363 37.0425C83.0031 37.1002 83.1894 37.1291 83.3944 37.1291C83.4503 37.1291 83.5098 37.1259 83.5726 37.1197C83.6353 37.1134 83.698 37.1046 83.762 37.0927C83.8259 37.0814 83.8874 37.0676 83.9476 37.0519C84.0078 37.0369 84.0617 37.02 84.1094 37.0024V37.3906C84.0103 37.432 83.8956 37.464 83.7651 37.4866C83.6347 37.5091 83.5004 37.5204 83.3631 37.5204C83.0834 37.5204 82.8356 37.4784 82.6199 37.395C82.4035 37.3116 82.2223 37.1912 82.0761 37.035C81.93 36.8788 81.8184 36.6876 81.7438 36.4618C81.6685 36.236 81.6309 35.9801 81.6309 35.6948C81.6309 35.4094 81.671 35.156 81.75 34.9208C81.8297 34.685 81.9444 34.4831 82.0943 34.3144C82.2442 34.145 82.4255 34.0133 82.6393 33.9193C82.8526 33.8246 83.0928 33.7775 83.3587 33.7775C83.4289 33.7775 83.4986 33.7807 83.5669 33.7869C83.6353 33.7932 83.7011 33.802 83.7645 33.8139C83.8272 33.8258 83.8855 33.8396 83.9388 33.8559C83.9921 33.8722 84.0385 33.8892 84.0768 33.9074V34.2956C83.9752 34.2598 83.8642 34.2297 83.7438 34.2053C83.6234 34.1808 83.5023 34.1689 83.38 34.1689L83.3788 34.1664Z" fill="#252525"></path></svg>